<?xml version="1.0" encoding="utf-8"?>
<!-- Generator: Adobe Illustrator 27.9.0, SVG Export Plug-In . SVG Version: 6.00 Build 0)  -->
<svg version="1.1" id="Layer_1" xmlns="http://www.w3.org/2000/svg" xmlns:xlink="http://www.w3.org/1999/xlink" x="0px" y="0px"
	 viewBox="0 0 408.8 408.9" style="enable-background:new 0 0 408.8 408.9;" xml:space="preserve">
<style type="text/css">
	.st0{fill:#7F7F7F;}
</style>
<path class="st0" d="M312.2,215.6c18.6,0,37.2-0.2,55.8,0.1c20,0.3,38,16.7,40.5,36.6c3,23.3-11.3,43.7-34,48.4
	c-2.9,0.6-6,0.9-9,0.9c-35.4,0.1-70.9,0.1-106.3,0c-20.7,0-37.7-13.4-42.4-33c-5.8-24,9.9-48,34.2-52.2c3-0.5,6.2-0.7,9.3-0.7
	C277.5,215.5,294.9,215.6,312.2,215.6L312.2,215.6L312.2,215.6z"/>
<path class="st0" d="M96.8,193.5c-17.6,0-35.2,0.1-52.9,0c-20.8-0.1-37.7-13-42.6-32.4c-6.6-26.2,12.5-52,39.5-53.3
	c1-0.1,2-0.1,2.9-0.1c35.3,0,70.7-0.1,106,0c21.2,0,37.8,13.2,42.7,33.7c5.7,23.5-11.3,48.4-35.3,51.5c-3,0.4-6,0.6-9,0.6
	C131,193.6,113.9,193.5,96.8,193.5L96.8,193.5z"/>
<path class="st0" d="M215.5,96.6c0-17.6-0.1-35.2,0-52.9c0.1-17.5,7.9-31,23.4-38.9c29.1-14.7,62.1,5.9,62.4,38.6
	c0.2,21.3,0,42.7,0,64c0,14.2,0.1,28.4,0,42.7c-0.1,21.1-13.6,37.8-34,42.5c-23.2,5.4-47.7-11.2-51.2-34.7c-0.4-3-0.6-6-0.6-9
	C215.5,131.4,215.5,114,215.5,96.6L215.5,96.6z"/>
<path class="st0" d="M193.4,312.6c0,17.7,0.1,35.4,0,53.2c-0.1,19.9-13.3,37.2-31.6,41.7c-28.1,7-54.1-13-54.2-41.9
	c-0.2-35.5-0.1-71.1,0-106.6c0.1-22.4,15.8-40.1,38.1-43.2c21.8-3,44.1,13.8,47.1,35.6c0.4,3.1,0.6,6.2,0.6,9.3
	C193.5,277.9,193.5,295.3,193.4,312.6L193.4,312.6z"/>
<path class="st0" d="M323.1,193.4c0-1.5,0-2.9,0-4.2c0-12.9-0.1-25.7,0-38.6c0.2-20.8,14.1-37.7,34.4-42.1
	c23.7-5.1,47.8,11.9,50.9,35.9c3,22.8-11.1,43.1-33.3,48.1c-1.9,0.4-3.8,0.8-5.8,0.9C354.1,193.4,338.8,193.4,323.1,193.4
	L323.1,193.4z"/>
<path class="st0" d="M193.4,85.8c-0.9,0-1.7,0.1-2.4,0.1c-13.5,0-27.1,0.1-40.6,0c-29.8-0.2-50.2-29.6-40.1-57.6
	c6.4-17.8,23.8-29.4,43.3-28.1c18.8,1.3,33.7,14,38.4,32c0.9,3.4,1.3,7.1,1.4,10.7c0.2,13.7,0.1,27.5,0.1,41.2
	C193.5,84.6,193.4,85.1,193.4,85.8L193.4,85.8z"/>
<path class="st0" d="M85.8,215.6c0,15.7,0.1,31.1-0.1,46.5c0,2.9-0.8,5.8-1.6,8.6c-5.3,19-24.2,32-44.1,30.6
	c-20.2-1.4-36.9-17-39.4-36.8c-3.2-24.4,13.3-45.8,37.7-48.8c0.8-0.1,1.5-0.1,2.3-0.1C55.6,215.6,70.6,215.6,85.8,215.6L85.8,215.6z
	"/>
<path class="st0" d="M215.5,323.3c1.1,0,1.8-0.1,2.6-0.1c13.5,0,27.1-0.1,40.6,0c31.9,0.3,52.3,33.6,38.1,62.2
	c-8.3,16.7-26.6,25.9-45.8,23c-17.4-2.7-32.2-17.5-34.9-35.1c-0.5-3-0.6-6-0.6-9c-0.1-12.6,0-25.1,0-37.7
	C215.5,325.5,215.5,324.5,215.5,323.3L215.5,323.3z"/>
</svg>
