<?xml version="1.0" encoding="UTF-8"?><svg id="Layer_1" xmlns="http://www.w3.org/2000/svg" viewBox="0 0 408.84 408.91"><defs><style>.cls-1{stroke-width:0px;}</style></defs><path class="cls-1" d="m312.18,215.6c18.59,0,37.18-.19,55.77.05,19.95.26,37.96,16.71,40.49,36.56,2.97,23.28-11.32,43.65-34.04,48.38-2.93.61-5.98.91-8.98.91-35.43.06-70.85.1-106.28.01-20.67-.05-37.66-13.4-42.41-33-5.81-24,9.88-48.03,34.2-52.23,3.04-.53,6.18-.68,9.28-.69,17.32-.06,34.65-.03,51.97-.03v.05Z"/><path class="cls-1" d="m96.76,193.54c-17.62,0-35.25.07-52.87-.02-20.82-.11-37.66-13.01-42.57-32.45-6.62-26.18,12.48-52,39.46-53.34.97-.05,1.95-.08,2.92-.08,35.34,0,70.69-.06,106.03.02,21.16.04,37.75,13.23,42.71,33.71,5.7,23.5-11.29,48.36-35.27,51.52-2.98.39-6.01.61-9.01.62-17.14.06-34.27.03-51.41.03Z"/><path class="cls-1" d="m215.52,96.58c0-17.62-.1-35.25.03-52.87.13-17.51,7.87-30.98,23.4-38.86,29.06-14.74,62.13,5.86,62.44,38.57.2,21.32.04,42.65.04,63.97,0,14.22.08,28.43-.02,42.65-.14,21.05-13.57,37.77-34,42.52-23.21,5.4-47.73-11.17-51.24-34.68-.44-2.97-.62-6-.63-9.01-.06-17.43-.03-34.86-.03-52.29Z"/><path class="cls-1" d="m193.45,312.6c0,17.72.09,35.44-.03,53.16-.13,19.91-13.29,37.17-31.59,41.74-28.12,7.02-54.13-12.95-54.25-41.94-.15-35.54-.13-71.08,0-106.62.08-22.44,15.83-40.14,38.1-43.2,21.76-3,44.1,13.83,47.13,35.57.43,3.07.62,6.2.63,9.3.06,17.33.03,34.66.03,51.99Z"/><path class="cls-1" d="m323.08,193.4c0-1.53,0-2.87,0-4.21,0-12.85-.1-25.7.03-38.55.2-20.83,14.09-37.74,34.44-42.13,23.67-5.11,47.75,11.88,50.9,35.9,2.99,22.81-11.07,43.14-33.3,48.11-1.89.42-3.84.84-5.76.85-15.28.07-30.56.04-46.3.04Z"/><path class="cls-1" d="m193.35,85.83c-.91.04-1.66.1-2.42.1-13.53,0-27.07.1-40.6-.02-29.84-.25-50.19-29.59-40.06-57.64C116.71,10.43,134.12-1.14,153.61.2c18.8,1.29,33.69,14.03,38.41,31.95.91,3.44,1.34,7.1,1.38,10.66.16,13.73.07,27.45.07,41.18,0,.56-.08,1.12-.13,1.85Z"/><path class="cls-1" d="m85.77,215.61c0,15.74.08,31.11-.07,46.48-.03,2.87-.81,5.78-1.59,8.58-5.28,18.98-24.15,32.04-44.13,30.65-20.16-1.4-36.88-17-39.44-36.77-3.16-24.44,13.34-45.79,37.74-48.83.77-.1,1.55-.1,2.33-.11,14.98,0,29.95,0,45.17,0Z"/><path class="cls-1" d="m215.49,323.27c1.05-.05,1.8-.11,2.56-.11,13.53,0,27.06-.1,40.59.02,31.93.28,52.31,33.56,38.14,62.18-8.27,16.7-26.61,25.92-45.76,22.99-17.41-2.66-32.16-17.45-34.87-35.1-.46-2.96-.61-6-.63-9-.07-12.56-.03-25.11-.03-37.67,0-1.04,0-2.08,0-3.3Z"/></svg>