<svg width="38" height="41" viewBox="0 0 38 41" fill="none" xmlns="http://www.w3.org/2000/svg">
<path id="Vector" d="M34.375 3.125H29.6875V1.5625C29.6875 1.1481 29.5229 0.750671 29.2299 0.457646C28.9368 0.16462 28.5394 0 28.125 0C27.7106 0 27.3132 0.16462 27.0201 0.457646C26.7271 0.750671 26.5625 1.1481 26.5625 1.5625V3.125H10.9375V1.5625C10.9375 1.1481 10.7729 0.750671 10.4799 0.457646C10.1868 0.16462 9.7894 0 9.375 0C8.9606 0 8.56317 0.16462 8.27015 0.457646C7.97712 0.750671 7.8125 1.1481 7.8125 1.5625V3.125H3.125C2.2962 3.125 1.50134 3.45424 0.915291 4.04029C0.32924 4.62634 0 5.4212 0 6.25V37.5C0 38.3288 0.32924 39.1237 0.915291 39.7097C1.50134 40.2958 2.2962 40.625 3.125 40.625H34.375C35.2038 40.625 35.9987 40.2958 36.5847 39.7097C37.1708 39.1237 37.5 38.3288 37.5 37.5V6.25C37.5 5.4212 37.1708 4.62634 36.5847 4.04029C35.9987 3.45424 35.2038 3.125 34.375 3.125ZM7.8125 6.25V7.8125C7.8125 8.2269 7.97712 8.62433 8.27015 8.91735C8.56317 9.21038 8.9606 9.375 9.375 9.375C9.7894 9.375 10.1868 9.21038 10.4799 8.91735C10.7729 8.62433 10.9375 8.2269 10.9375 7.8125V6.25H26.5625V7.8125C26.5625 8.2269 26.7271 8.62433 27.0201 8.91735C27.3132 9.21038 27.7106 9.375 28.125 9.375C28.5394 9.375 28.9368 9.21038 29.2299 8.91735C29.5229 8.62433 29.6875 8.2269 29.6875 7.8125V6.25H34.375V12.5H3.125V6.25H7.8125ZM34.375 37.5H3.125V15.625H34.375V37.5ZM15.625 20.3125V32.8125C15.625 33.2269 15.4604 33.6243 15.1674 33.9174C14.8743 34.2104 14.4769 34.375 14.0625 34.375C13.6481 34.375 13.2507 34.2104 12.9576 33.9174C12.6646 33.6243 12.5 33.2269 12.5 32.8125V22.8398L11.6367 23.2734C11.2658 23.4589 10.8365 23.4894 10.4431 23.3583C10.0497 23.2271 9.72451 22.9451 9.53906 22.5742C9.35362 22.2033 9.3231 21.774 9.45423 21.3806C9.58536 20.9872 9.86739 20.662 10.2383 20.4766L13.3633 18.9141C13.6016 18.7948 13.8664 18.7385 14.1326 18.7505C14.3988 18.7624 14.6576 18.8423 14.8842 18.9824C15.1109 19.1225 15.2979 19.3183 15.4276 19.5511C15.5572 19.7839 15.6252 20.046 15.625 20.3125ZM27.1797 26.2598L23.4375 31.25H26.5625C26.9769 31.25 27.3743 31.4146 27.6674 31.7076C27.9604 32.0007 28.125 32.3981 28.125 32.8125C28.125 33.2269 27.9604 33.6243 27.6674 33.9174C27.3743 34.2104 26.9769 34.375 26.5625 34.375H20.3125C20.0223 34.375 19.7379 34.2942 19.491 34.1416C19.2442 33.9891 19.0447 33.7708 18.915 33.5113C18.7852 33.2517 18.7303 32.9612 18.7563 32.6722C18.7824 32.3832 18.8884 32.1071 19.0625 31.875L24.6836 24.3809C24.8115 24.2106 24.9032 24.0161 24.9531 23.8092C25.0031 23.6022 25.0103 23.3873 24.9742 23.1775C24.9381 22.9677 24.8595 22.7675 24.7432 22.5891C24.6269 22.4108 24.4755 22.2581 24.2981 22.1404C24.1207 22.0227 23.9211 21.9425 23.7116 21.9047C23.5021 21.867 23.2871 21.8724 23.0797 21.9207C22.8724 21.969 22.6771 22.0592 22.5059 22.1856C22.3347 22.3121 22.1911 22.4723 22.084 22.6562C21.9844 22.8396 21.8491 23.0012 21.6861 23.1314C21.5231 23.2616 21.3356 23.3579 21.1348 23.4145C20.934 23.4711 20.7239 23.4869 20.5168 23.461C20.3098 23.4351 20.11 23.368 19.9293 23.2636C19.7487 23.1593 19.5907 23.0198 19.4648 22.8534C19.3389 22.687 19.2476 22.4971 19.1963 22.2948C19.145 22.0926 19.1348 21.8821 19.1661 21.6758C19.1975 21.4695 19.2698 21.2716 19.3789 21.0938C19.895 20.2006 20.6914 19.5026 21.6446 19.108C22.5977 18.7134 23.6544 18.6443 24.6508 18.9113C25.6473 19.1783 26.5278 19.7666 27.1559 20.5849C27.784 21.4032 28.1247 22.4059 28.125 23.4375C28.1283 24.4565 27.7961 25.4483 27.1797 26.2598Z" fill="#D81E05"/>
</svg>
