<svg width="46" height="38" viewBox="0 0 46 38" fill="none" xmlns="http://www.w3.org/2000/svg">
<path id="Vector" d="M4.16667 18.75C1.875 18.75 0 16.875 0 14.5833V4.16667C0 1.875 1.875 0 4.16667 0H20.8333C23.125 0 25 1.875 25 4.16667V14.5833C25 16.875 23.125 18.75 20.8333 18.75H16.6667V25L10.4167 18.75H4.16667ZM41.6667 31.25C43.9583 31.25 45.8333 29.375 45.8333 27.0833V16.6667C45.8333 14.375 43.9583 12.5 41.6667 12.5H29.1667V14.5833C29.1667 19.1667 25.4167 22.9167 20.8333 22.9167V27.0833C20.8333 29.375 22.7083 31.25 25 31.25H29.1667V37.5L35.4167 31.25H41.6667Z" fill="#D81E05"/>
</svg>
