<svg width="41" height="56" viewBox="0 0 41 56" fill="none" xmlns="http://www.w3.org/2000/svg">
<path id="Vector" d="M40.7145 16.0076L27.0478 0.3276C26.9571 0.223626 26.8494 0.141178 26.7309 0.0849673C26.6124 0.0287567 26.4854 -0.000115344 26.3571 3.46305e-07H2.92857C2.15187 3.46305e-07 1.40697 0.353999 0.857758 0.984122C0.308545 1.61424 0 2.46887 0 3.36V52.64C0 53.5311 0.308545 54.3857 0.857758 55.0159C1.40697 55.646 2.15187 56 2.92857 56H38.0714C38.8481 56 39.593 55.646 40.1422 55.0159C40.6915 54.3857 41 53.5311 41 52.64V16.8C41.0001 16.6529 40.9749 16.5072 40.9259 16.3712C40.877 16.2352 40.8051 16.1117 40.7145 16.0076ZM27.3333 3.822L37.6663 15.68H27.3333V3.822ZM38.0714 53.76H2.92857C2.66967 53.76 2.42137 53.642 2.2383 53.432C2.05523 53.2219 1.95238 52.937 1.95238 52.64V3.36C1.95238 3.06296 2.05523 2.77808 2.2383 2.56804C2.42137 2.358 2.66967 2.24 2.92857 2.24H25.381V16.8C25.381 17.097 25.4838 17.3819 25.6669 17.592C25.8499 17.802 26.0982 17.92 26.3571 17.92H39.0476V52.64C39.0476 52.937 38.9448 53.2219 38.7617 53.432C38.5786 53.642 38.3303 53.76 38.0714 53.76Z" fill="#50555C"/>
</svg>
