<?xml version="1.0" encoding="utf-8"?>
<!-- Generator: Adobe Illustrator 27.9.0, SVG Export Plug-In . SVG Version: 6.00 Build 0)  -->
<svg version="1.1" id="Layer_1" xmlns="http://www.w3.org/2000/svg" xmlns:xlink="http://www.w3.org/1999/xlink" x="0px" y="0px"
	 viewBox="0 0 41 56" style="enable-background:new 0 0 41 56;" xml:space="preserve">
<style type="text/css">
	.st0{fill:#50555C;}
	.st1{fill:none;stroke:#50555C;stroke-linecap:round;}
</style>
<path id="Vector" class="st0" d="M40.7,16L27,0.3c-0.1-0.1-0.2-0.2-0.3-0.2C26.6,0,26.5,0,26.4,0H2.9C2.2,0,1.4,0.4,0.9,1
	C0.3,1.6,0,2.5,0,3.4v49.3c0,0.9,0.3,1.7,0.9,2.4c0.5,0.6,1.3,1,2.1,1h35.1c0.8,0,1.5-0.4,2.1-1c0.5-0.6,0.9-1.5,0.9-2.4V16.8
	c0-0.1,0-0.3-0.1-0.4C40.9,16.2,40.8,16.1,40.7,16z M27.3,3.8l10.3,11.9H27.3V3.8z M38.1,53.8H2.9c-0.3,0-0.5-0.1-0.7-0.3
	C2.1,53.2,2,52.9,2,52.6V3.4c0-0.3,0.1-0.6,0.3-0.8c0.2-0.2,0.4-0.3,0.7-0.3h22.5v14.6c0,0.3,0.1,0.6,0.3,0.8
	c0.2,0.2,0.4,0.3,0.7,0.3H39v34.7c0,0.3-0.1,0.6-0.3,0.8C38.6,53.6,38.3,53.8,38.1,53.8z"/>
<path id="Vector_13" class="st1" d="M14.9,27.2l3.4,6.5l7.8-11.3"/>
</svg>
